<svg width="44" height="44" viewBox="0 0 44 44" fill="none" xmlns="http://www.w3.org/2000/svg">
<circle cx="21.5111" cy="21.5111" r="21.5111" fill="#FEF2F2"/>
<path d="M22.5631 34.8L20.6112 33.9535L18.6592 34.8V9.20001H22.5631V34.8Z" fill="#E2E2E2"/>
<path d="M30.0813 32.4318H16.3745V10.5181H30.092C30.4888 10.5181 30.7999 10.8395 30.7999 11.2253V31.7139C30.7999 32.1104 30.4781 32.4211 30.092 32.4211L30.0813 32.4318Z" fill="#DB3141"/>
<path d="M16.4711 10.5181H13.2V32.4318H16.4711V10.5181Z" fill="#9B0013"/>
<path d="M21.7909 18.437C21.7158 18.3192 21.6515 18.1799 21.6086 18.0191C21.5549 17.8584 21.5335 17.6869 21.5335 17.5048C21.5335 17.3226 21.5657 17.1297 21.6193 16.9475C21.6837 16.7547 21.7802 16.5832 21.9196 16.4332C22.059 16.2725 22.2414 16.1439 22.4559 16.0474C22.6704 15.9403 22.9385 15.8974 23.2495 15.8974C23.5606 15.8974 23.8287 15.951 24.0646 16.0689C24.3006 16.1867 24.4936 16.326 24.6331 16.5189C24.6652 16.5832 24.6652 16.6368 24.6331 16.6689L24.2148 17.0761C24.1504 17.1297 24.0968 17.1404 24.0539 17.0976C23.9467 16.9904 23.8287 16.9047 23.7 16.8297C23.5713 16.7547 23.4319 16.7225 23.2817 16.7225C23.035 16.7225 22.842 16.7975 22.6918 16.9583C22.5524 17.119 22.4773 17.3119 22.4773 17.5476C22.4773 17.7619 22.5309 17.9548 22.6489 18.1049C22.7669 18.2656 22.8741 18.3835 23.0028 18.4585H24.6438C24.7081 18.4585 24.7403 18.5013 24.7403 18.5763V19.1764C24.7403 19.2514 24.7081 19.2943 24.6438 19.2943H21.201C21.1367 19.2943 21.1045 19.2514 21.1045 19.1764V18.5763C21.1045 18.5013 21.1367 18.4585 21.201 18.4585H21.8016L21.7909 18.437ZM23.8501 26.431C23.8501 26.5382 23.7965 26.5917 23.6893 26.5917H22.1877C22.0805 26.5917 22.0269 26.5382 22.0269 26.431V20.248C22.0269 20.1408 22.0805 20.0873 22.1877 20.0873H23.6893C23.7965 20.0873 23.8501 20.1408 23.8501 20.248V26.431Z" fill="#E2E2E2"/>
</svg>
