<svg width="29" height="33" viewBox="0 0 29 33" fill="none" xmlns="http://www.w3.org/2000/svg">
<path fill-rule="evenodd" clip-rule="evenodd" d="M6.16499 1.67161L4.48982 3.48931H8.48973L8.49128 5.95443H4.5359L6.07867 7.58911L4.29109 9.28225L0.788317 5.56842L0 4.73185L0.777555 3.88607L4.35577 0L6.16499 1.67161ZM24.5103 3.48931L22.8351 1.67161L24.6442 0L28.2224 3.88607L29 4.73185L28.2117 5.56842L24.7074 9.28225L22.9198 7.59064L24.4641 5.95443H20.5087L20.5103 3.48931H24.5103ZM18.0359 3.54467L18.079 4.73186L18.5147 16.6037L19.4247 15.8486C20.8766 14.646 23.0383 14.8936 24.1822 16.3945L25.0336 17.511L25.5094 18.1338L25.146 18.8289L21.594 25.6305L21.5909 25.6382L20.9504 26.8838C19.1012 30.4823 15.2907 32.6292 11.2596 32.343C5.9629 31.9678 1.85538 27.5527 1.85538 22.2349V14.0782L2.85772 13.8906L11.0042 12.3589V3.54242H16.8488L18.0359 3.54467ZM13.4644 6.00672V14.4031L12.4621 14.5923L4.3156 16.124V22.2382C4.3156 26.2612 7.42267 29.6012 11.4306 29.8859C14.4807 30.1012 17.3646 28.4772 18.7627 25.7554L19.4063 24.502L19.4109 24.4943L22.6042 18.3817L22.2285 17.8896C21.9314 17.5005 21.3709 17.4359 20.9952 17.7481L18.1622 20.0963L16.1483 19.1905L15.6648 6.00851L13.4644 6.00672Z" fill="#64748B"/>
</svg>
