<svg width="80" height="80" viewBox="0 0 80 80" fill="none" xmlns="http://www.w3.org/2000/svg">
<circle cx="40" cy="40" r="40" fill="#FFEDD5"/>
<path d="M54.9979 57.0842C54.9979 58.5414 53.884 59.739 52.5314 59.739H26.1755C24.803 59.739 23.709 58.5613 23.709 57.0842V20.6753C23.709 19.2182 24.8229 18.0205 26.1755 18.0205H52.5115C53.884 18.0205 54.978 19.1982 54.978 20.6753V57.0842H54.9979Z" fill="#0655CB"/>
<path d="M53.7845 18.0205H24.9223C24.2522 18.0205 23.709 18.5657 23.709 19.2381V58.5214C23.709 59.1939 24.2522 59.739 24.9223 59.739H53.7845C54.4546 59.739 54.9979 59.1939 54.9979 58.5214V19.2381C54.9979 18.5657 54.4546 18.0205 53.7845 18.0205Z" fill="#FF7F00"/>
<path d="M51.1985 21.7134H27.7269C27.2106 21.7134 26.792 22.1334 26.792 22.6515V27.9811C26.792 28.4993 27.2106 28.9193 27.7269 28.9193H51.1985C51.7148 28.9193 52.1334 28.4993 52.1334 27.9811V22.6515C52.1334 22.1334 51.7148 21.7134 51.1985 21.7134Z" fill="#E2E2E2"/>
<path d="M32.3814 31.0752H27.9059C27.2907 31.0752 26.792 31.5757 26.792 32.193V36.6842C26.792 37.3016 27.2907 37.8021 27.9059 37.8021H32.3814C32.9966 37.8021 33.4953 37.3016 33.4953 36.6842V32.193C33.4953 31.5757 32.9966 31.0752 32.3814 31.0752Z" fill="#E54600"/>
<path d="M41.4713 31.0752H36.9957C36.3806 31.0752 35.8818 31.5757 35.8818 32.193V36.6842C35.8818 37.3016 36.3806 37.8021 36.9957 37.8021H41.4713C42.0865 37.8021 42.5852 37.3016 42.5852 36.6842V32.193C42.5852 31.5757 42.0865 31.0752 41.4713 31.0752Z" fill="#E54600"/>
<path d="M50.8004 31.0752H46.3248C45.7097 31.0752 45.2109 31.5757 45.2109 32.193V36.6842C45.2109 37.3016 45.7097 37.8021 46.3248 37.8021H50.8004C51.4156 37.8021 51.9143 37.3016 51.9143 36.6842V32.193C51.9143 31.5757 51.4156 31.0752 50.8004 31.0752Z" fill="#E54600"/>
<path d="M32.3814 40.1973H27.9059C27.2907 40.1973 26.792 40.6977 26.792 41.3151V45.8063C26.792 46.4237 27.2907 46.9241 27.9059 46.9241H32.3814C32.9966 46.9241 33.4953 46.4237 33.4953 45.8063V41.3151C33.4953 40.6977 32.9966 40.1973 32.3814 40.1973Z" fill="#E54600"/>
<path d="M41.4713 40.1973H36.9957C36.3806 40.1973 35.8818 40.6977 35.8818 41.3151V45.8063C35.8818 46.4237 36.3806 46.9241 36.9957 46.9241H41.4713C42.0865 46.9241 42.5852 46.4237 42.5852 45.8063V41.3151C42.5852 40.6977 42.0865 40.1973 41.4713 40.1973Z" fill="#E54600"/>
<path d="M50.8004 40.1973H46.3248C45.7097 40.1973 45.2109 40.6977 45.2109 41.3151V45.8063C45.2109 46.4237 45.7097 46.9241 46.3248 46.9241H50.8004C51.4156 46.9241 51.9143 46.4237 51.9143 45.8063V41.3151C51.9143 40.6977 51.4156 40.1973 50.8004 40.1973Z" fill="#E54600"/>
<path d="M32.3814 49.5591H27.9059C27.2907 49.5591 26.792 50.0595 26.792 50.6769V55.1681C26.792 55.7855 27.2907 56.2859 27.9059 56.2859H32.3814C32.9966 56.2859 33.4953 55.7855 33.4953 55.1681V50.6769C33.4953 50.0595 32.9966 49.5591 32.3814 49.5591Z" fill="#E54600"/>
<path d="M41.4713 49.5591H36.9957C36.3806 49.5591 35.8818 50.0595 35.8818 50.6769V55.1681C35.8818 55.7855 36.3806 56.2859 36.9957 56.2859H41.4713C42.0865 56.2859 42.5852 55.7855 42.5852 55.1681V50.6769C42.5852 50.0595 42.0865 49.5591 41.4713 49.5591Z" fill="#E54600"/>
<path d="M51.6962 49.8184C51.6962 49.8184 51.6565 49.6787 51.5968 49.6388C51.5371 49.5988 51.4575 49.6188 51.3979 49.6388L48.5136 51.6349L45.6294 49.6388C45.6294 49.6388 45.4902 49.5988 45.4305 49.6388C45.3708 49.6787 45.3311 49.7386 45.3311 49.8184V49.9182L45.53 50.058L45.7886 50.2376L45.53 50.058L45.3311 49.9182V54.3695C45.3311 54.3695 45.3708 54.4893 45.4106 54.5292L48.3545 56.6451C48.3545 56.6451 48.4341 56.705 48.4739 56.7249C48.4739 56.7249 48.4739 56.7249 48.4938 56.7249H48.5136C48.5534 56.705 48.5932 56.685 48.633 56.6451L51.5769 54.5292C51.5769 54.5292 51.6565 54.4294 51.6565 54.3695V49.9182V49.8184H51.6962ZM48.4341 56.1461L48.5136 56.2059L48.4341 56.1461ZM51.2586 50.2176L51.3979 50.1178L51.2586 50.2176Z" fill="#E2E2E2"/>
</svg>
