<svg width="40" height="40" viewBox="0 0 40 40" fill="none" xmlns="http://www.w3.org/2000/svg">
<path d="M7.5 20V6.25C7.5 5.91848 7.6317 5.60054 7.86612 5.36612C8.10054 5.1317 8.41848 5 8.75 5H23.75L32.5 13.75V20" stroke="#10B981" stroke-width="2.08334" stroke-linecap="round" stroke-linejoin="round"/>
<path d="M23.75 5V13.75H32.5" stroke="#10B981" stroke-width="2.08334" stroke-linecap="round" stroke-linejoin="round"/>
<path d="M7.5 31.25H10C10.663 31.25 11.2989 30.9866 11.7678 30.5178C12.2366 30.0489 12.5 29.413 12.5 28.75C12.5 28.087 12.2366 27.4511 11.7678 26.9822C11.2989 26.5134 10.663 26.25 10 26.25H7.5V33.75" stroke="#10B981" stroke-width="2.08334" stroke-linecap="round" stroke-linejoin="round"/>
<path d="M33.75 26.25H29.375V33.75" stroke="#10B981" stroke-width="2.08334" stroke-linecap="round" stroke-linejoin="round"/>
<path d="M33.125 30.625H29.375" stroke="#10B981" stroke-width="2.08334" stroke-linecap="round" stroke-linejoin="round"/>
<path d="M20 33.75C20.9946 33.75 21.9484 33.3549 22.6517 32.6517C23.3549 31.9484 23.75 30.9946 23.75 30C23.75 29.0054 23.3549 28.0516 22.6517 27.3483C21.9484 26.6451 20.9946 26.25 20 26.25H17.8125V33.75H20Z" stroke="#10B981" stroke-width="2.08334" stroke-linecap="round" stroke-linejoin="round"/>
</svg>
