<svg width="40" height="40" viewBox="0 0 40 40" fill="none" xmlns="http://www.w3.org/2000/svg">
<path d="M26.4245 19.5279L17.4296 13.4162C17.3539 13.3643 17.2671 13.3358 17.1781 13.3336C17.0892 13.3314 17.0013 13.3557 16.9236 13.4038C16.8459 13.4519 16.7811 13.5222 16.736 13.6074C16.6909 13.6926 16.6671 13.7896 16.667 13.8885V26.1118C16.6671 26.2107 16.6909 26.3077 16.736 26.3929C16.7811 26.4781 16.8459 26.5484 16.9236 26.5965C17.0013 26.6447 17.0892 26.6689 17.1781 26.6667C17.2671 26.6645 17.3539 26.636 17.4296 26.5841L26.4245 20.4724C26.4984 20.4239 26.5596 20.3548 26.6021 20.272C26.6446 20.1892 26.667 20.0955 26.667 20.0002C26.667 19.9048 26.6446 19.8111 26.6021 19.7283C26.5596 19.6455 26.4984 19.5764 26.4245 19.5279Z" fill="#2563EB"/>
<path d="M20 35C28.2845 35 35 28.2845 35 20C35 11.7155 28.2845 5 20 5C11.7155 5 5 11.7155 5 20C5 28.2845 11.7155 35 20 35Z" stroke="#2563EB" stroke-width="2.08334" stroke-linejoin="round"/>
</svg>
