<svg width="32" height="32" viewBox="0 0 32 32" fill="none" xmlns="http://www.w3.org/2000/svg">
<rect x="-0.00292969" width="32" height="32" rx="10.2857" fill="#2DD4BF"/>
<path d="M8.17898 17.0555C7.43181 15.7967 7.16992 14.3084 7.44249 12.8701C7.71507 11.4319 8.50336 10.1426 9.65932 9.24449C10.8153 8.34636 12.2594 7.90115 13.7204 7.99249C15.1814 8.08382 16.5587 8.70541 17.5938 9.74051C18.6289 10.7756 19.2505 12.153 19.3419 13.614C19.4332 15.075 18.988 16.5191 18.0899 17.675C17.1917 18.831 15.9025 19.6193 14.4642 19.8919C13.026 20.1644 11.5377 19.9025 10.2789 19.1554L8.20398 19.747C8.11848 19.7711 8.02813 19.7719 7.94221 19.7494C7.8563 19.727 7.77791 19.682 7.71511 19.6192C7.65232 19.5564 7.60738 19.4781 7.58492 19.3921C7.56247 19.3062 7.5633 19.2159 7.58733 19.1304L8.17898 17.0555Z" stroke="white" stroke-width="1.5" stroke-linecap="round" stroke-linejoin="round"/>
<path d="M10.6704 11.5529H15.948" stroke="white" stroke-width="1.5" stroke-linecap="round"/>
<path d="M10.6704 13.8148H15.948" stroke="white" stroke-width="1.5" stroke-linecap="round"/>
<path d="M10.6704 16.0766H14.0632" stroke="white" stroke-width="1.5" stroke-linecap="round"/>
<path d="M13.0125 19.9887C13.3061 20.826 13.7822 21.5877 14.4061 22.2186C15.0301 22.8495 15.7864 23.334 16.6204 23.637C17.4544 23.94 18.3453 24.0539 19.2288 23.9706C20.1122 23.8873 20.9661 23.6088 21.7287 23.1552L23.8037 23.7468C23.8892 23.7709 23.9795 23.7717 24.0654 23.7493C24.1513 23.7268 24.2297 23.6819 24.2925 23.6191C24.3553 23.5563 24.4003 23.4779 24.4227 23.392C24.4452 23.306 24.4443 23.2157 24.4203 23.1302L23.8287 21.0553C24.3569 20.1687 24.6471 19.1607 24.6712 18.1289C24.6953 17.0972 24.4525 16.0767 23.9664 15.1663C23.4802 14.256 22.7671 13.4867 21.8962 12.9329C21.0253 12.3792 20.0261 12.0598 18.9955 12.0057" stroke="white" stroke-width="1.5" stroke-linecap="round" stroke-linejoin="round"/>
</svg>
