<svg width="20" height="20" viewBox="0 0 20 20" fill="none" xmlns="http://www.w3.org/2000/svg">
<path fill-rule="evenodd" clip-rule="evenodd" d="M10 20C15.5228 20 20 15.5228 20 10C20 4.47715 15.5228 0 10 0C4.47715 0 0 4.47715 0 10C0 15.5228 4.47715 20 10 20ZM16.5268 7.25592C16.8522 6.93049 16.8522 6.40285 16.5268 6.07741C16.2013 5.75197 15.6737 5.75197 15.3482 6.07741L8.64583 12.7798L5.58926 9.72324C5.26382 9.39781 4.73618 9.39781 4.41074 9.72324C4.08531 10.0487 4.08531 10.5763 4.41074 10.9018L8.05658 14.5476C8.38202 14.873 8.90965 14.873 9.23509 14.5476L16.5268 7.25592Z" fill="#2563EB"/>
</svg>
